<svg xmlns="http://www.w3.org/2000/svg" width="21" height="22" viewBox="0 0 21 22"><g><g><path d="M21 3.143l-1.542 6.333a2.335 2.335 0 0 1-1.72 1.72L6.316 13.94l.093.392c.087.36.408.608.771.598h10.558v1.57H7.18a2.322 2.322 0 0 1-2.267-1.783l-.286-1.17L1.882 2.169a.774.774 0 0 0-.771-.598H0V0h1.11c1.062 0 1.987.735 2.245 1.784l.331 1.359zm-1.936 1.571H4.072l1.89 7.7 11.452-2.742a.778.778 0 0 0 .578-.573zm-1.326 14.929c0 .953-.564 1.813-1.428 2.178a2.283 2.283 0 0 1-2.522-.511 2.39 2.39 0 0 1-.501-2.57 2.314 2.314 0 0 1 2.137-1.454c1.278 0 2.314 1.055 2.314 2.357zm-1.543 0a.779.779 0 0 0-.77-.786.779.779 0 0 0-.772.786c0 .434.345.786.771.786a.779.779 0 0 0 .771-.786zm-7.712 0C8.483 20.945 7.447 22 6.17 22c-1.278 0-2.314-1.055-2.314-2.357 0-1.302 1.036-2.357 2.314-2.357 1.277 0 2.313 1.055 2.313 2.357zm-1.542 0a.779.779 0 0 0-.771-.786.779.779 0 0 0-.772.786c0 .434.346.786.772.786a.779.779 0 0 0 .77-.786z"/></g></g></svg>