<svg xmlns="http://www.w3.org/2000/svg" width="20" height="19" viewBox="0 0 20 19"><g><g><path d="M20 15.954c0 .395-.32.714-.714.714H17.99a2.614 2.614 0 0 1-5.033 0H.714a.714.714 0 0 1 0-1.428h12.248a2.614 2.614 0 0 1 5.033 0h1.29c.395 0 .715.32.715.714zm-3.333 0a1.19 1.19 0 1 0-2.381 0 1.19 1.19 0 0 0 2.38 0zM20 9.288c0 .394-.32.714-.714.714h-6.71a2.619 2.619 0 0 1-5.147 0H.714a.714.714 0 1 1 0-1.429h6.848a2.614 2.614 0 0 1 4.876 0h6.848c.394 0 .714.32.714.715zm-8.81.238a1.19 1.19 0 1 0-2.38 0 1.19 1.19 0 0 0 2.38 0zM0 2.62c0-.395.32-.714.714-.714H2.01a2.614 2.614 0 0 1 5.033 0h12.243a.714.714 0 1 1 0 1.428H7.038a2.614 2.614 0 0 1-5.033 0H.715A.714.714 0 0 1 0 2.621zm3.333 0a1.19 1.19 0 1 0 2.381 0 1.19 1.19 0 0 0-2.38 0z"/></g></g></svg>