<svg xmlns="http://www.w3.org/2000/svg" width="23" height="20" viewBox="0 0 23 20"><g><g><path d="M6.302 1.3a5.022 5.022 0 0 1 3.349 1.288l.191.182L11.3 4.198l1.466-1.437A5.02 5.02 0 0 1 16.3 1.31a5.02 5.02 0 0 1 3.536 1.452 5.03 5.03 0 0 1 .172 6.91l-.172.183L11.3 18.3 2.763 9.854a5.03 5.03 0 0 1 0-7.093A4.97 4.97 0 0 1 6.303 1.3zM6.6.008L6.305 0A6.268 6.268 0 0 0 1.84 1.845a6.33 6.33 0 0 0-.002 8.924l9.46 9.36 9.452-9.351a6.333 6.333 0 0 0 .01-8.931A6.326 6.326 0 0 0 16.3.009l-.293.006A6.318 6.318 0 0 0 11.85 1.84l-.551.539-.547-.537A6.307 6.307 0 0 0 6.6.008z"/></g></g></svg>