<svg xmlns="http://www.w3.org/2000/svg" width="20" height="20" viewBox="0 0 20 20"><g><g><path d="M13.334 10a3.334 3.334 0 1 1-6.667 0 3.334 3.334 0 0 1 6.667 0zM9.104 1.8H10c2.67 0 2.987.01 4.042.058.975.044 1.504.207 1.856.344.467.181.8.398 1.15.748.35.35.566.683.748 1.15.137.352.3.881.344 1.856.048 1.055.059 1.371.059 4.04 0 2.67-.01 2.986-.059 4.04-.044.975-.207 1.504-.344 1.857a3.092 3.092 0 0 1-.748 1.148c-.35.35-.683.567-1.15.748-.352.138-.881.3-1.856.345-1.055.048-1.371.058-4.042.058-2.67 0-2.986-.01-4.04-.058-.976-.045-1.505-.208-1.858-.345a3.097 3.097 0 0 1-1.15-.748 3.1 3.1 0 0 1-.748-1.15c-.137-.351-.3-.88-.345-1.856-.047-1.054-.057-1.37-.057-4.041 0-2.67.01-2.986.057-4.04.045-.975.208-1.504.345-1.857.181-.467.398-.8.748-1.15.35-.35.684-.567 1.15-.748.353-.138.882-.3 1.857-.345.923-.042 1.28-.054 3.144-.056zm6.235 1.66a1.2 1.2 0 1 0 0 2.401 1.2 1.2 0 0 0 0-2.4zM10 4.865a5.136 5.136 0 1 0 0 10.272 5.136 5.136 0 0 0 0-10.272zM5.877.059C4.812.11 4.085.277 3.45.524a4.897 4.897 0 0 0-1.772 1.153A4.91 4.91 0 0 0 .524 3.45C.276 4.085.107 4.812.059 5.876.011 6.943 0 7.284 0 10c0 2.716.012 3.055.06 4.122.05 1.065.218 1.792.465 2.427a4.9 4.9 0 0 0 1.153 1.772 4.897 4.897 0 0 0 1.771 1.154c.637.248 1.364.416 2.428.465 1.067.048 1.407.06 4.123.06s3.056-.012 4.123-.06c1.065-.049 1.792-.217 2.428-.465a4.893 4.893 0 0 0 1.77-1.154 4.91 4.91 0 0 0 1.155-1.771c.246-.636.415-1.363.465-2.428.047-1.066.06-1.406.06-4.122s-.013-3.057-.06-4.124c-.05-1.065-.22-1.791-.465-2.427a4.908 4.908 0 0 0-1.154-1.772A4.888 4.888 0 0 0 16.55.524c-.638-.247-1.365-.416-2.43-.465C13.054.011 12.714 0 10 0c-2.715 0-3.056.012-4.122.06z"/></g></g></svg>