<svg xmlns="http://www.w3.org/2000/svg" width="17" height="20" viewBox="0 0 17 20"><g><g><path d="M10.823 8.333V15c0 .46-.37.833-.828.833A.831.831 0 0 1 9.167 15V8.333c0-.46.37-.833.828-.833.457 0 .828.373.828.833zM6.667 7.5c.46 0 .833.373.833.833V15a.834.834 0 0 1-1.667 0V8.333c0-.46.374-.833.834-.833zM14.069 5H2.597l1.4 12.592a.834.834 0 0 0 .828.741h7.017c.424 0 .78-.319.828-.741zm1.764-1.667a.834.834 0 0 1 0 1.667h-.087l-1.42 12.776A2.498 2.498 0 0 1 11.842 20H4.825a2.5 2.5 0 0 1-2.485-2.224L.92 5H.834a.834.834 0 0 1 0-1.667H5V2.5A2.5 2.5 0 0 1 7.5 0h1.667a2.5 2.5 0 0 1 2.5 2.5v.833zM7.5 1.667a.831.831 0 0 0-.833.828v.828H10v-.828a.831.831 0 0 0-.833-.828z"/></g></g></svg>