<svg xmlns="http://www.w3.org/2000/svg" width="20" height="17" viewBox="0 0 20 17"><g><g><path d="M9.711 4.397l.043.715-.722-.088c-2.63-.336-4.928-1.474-6.879-3.385L1.2.691l-.245.7c-.52 1.561-.188 3.21.896 4.319.578.612.448.7-.55.335-.346-.116-.65-.204-.679-.16-.1.102.246 1.43.52 1.955.376.73 1.142 1.444 1.98 1.867l.709.336-.839.014c-.809 0-.838.015-.751.321.289.949 1.43 1.955 2.702 2.393l.896.306-.78.467a8.136 8.136 0 0 1-3.873 1.08c-.65.014-1.185.073-1.185.116 0 .146 1.763.963 2.79 1.284 3.077.949 6.733.54 9.479-1.08 1.95-1.152 3.902-3.442 4.812-5.66.492-1.182.983-3.34.983-4.377 0-.67.043-.758.852-1.56.477-.468.925-.978 1.012-1.124.145-.277.13-.277-.607-.03-1.228.438-1.402.38-.795-.277.448-.466.983-1.313.983-1.56 0-.044-.217.029-.462.16-.26.146-.839.365-1.272.496l-.78.248-.709-.481c-.39-.263-.939-.555-1.228-.642-.737-.205-1.864-.175-2.529.058-1.806.656-2.948 2.349-2.818 4.202z"/></g></g></svg>