<svg xmlns="http://www.w3.org/2000/svg" width="20" height="12" viewBox="0 0 20 12"><g><g><path d="M10.98 11.153s.362-.04.547-.234c.169-.179.163-.516.163-.516s-.022-1.573.722-1.806c.734-.228 1.676 1.522 2.675 2.195.755.51 1.329.398 1.329.398l2.671-.037s1.397-.084.735-1.163c-.055-.088-.387-.798-1.986-2.255-1.676-1.526-1.45-1.28.566-3.919 1.23-1.607 1.72-2.588 1.567-3.008-.146-.401-1.05-.295-1.05-.295l-3.007.018s-.223-.03-.388.068c-.162.095-.266.317-.266.317s-.476 1.243-1.11 2.301c-1.34 2.232-1.875 2.35-2.094 2.211-.51-.323-.383-1.298-.383-1.99 0-2.163.335-3.065-.65-3.298-.327-.078-.567-.129-1.404-.138-1.073-.01-1.98.004-2.495.251-.343.164-.607.531-.445.552.198.026.648.12.887.438.308.412.297 1.336.297 1.336s.177 2.546-.413 2.862c-.405.217-.961-.226-2.155-2.25C4.68 2.152 4.22 1.006 4.22 1.006S4.13.793 3.97.677C3.778.538 3.509.495 3.509.495L.652.513S.222.525.065.708c-.14.162-.01.5-.01.5s2.236 5.137 4.77 7.727c2.323 2.374 4.96 2.218 4.96 2.218z"/></g></g></svg>