<svg xmlns="http://www.w3.org/2000/svg" width="20" height="20" viewBox="0 0 20 20"><g><g><path d="M15.059 12.333c-.062-.103-.228-.166-.477-.29-.249-.125-1.472-.727-1.7-.81-.228-.083-.394-.124-.56.125-.166.249-.643.81-.788.975-.145.166-.29.187-.54.063-.248-.125-1.05-.388-2-1.235-.74-.66-1.24-1.475-1.384-1.724-.145-.25-.016-.384.109-.508.112-.111.249-.29.373-.436.124-.145.166-.249.249-.415.083-.166.041-.311-.02-.436-.063-.124-.56-1.349-.768-1.847-.202-.485-.407-.42-.56-.427a9.885 9.885 0 0 0-.477-.01.914.914 0 0 0-.663.312c-.228.25-.871.851-.871 2.076s.891 2.408 1.016 2.574c.124.166 1.754 2.68 4.25 3.757.594.256 1.058.41 1.419.524.596.19 1.138.163 1.567.099.478-.072 1.472-.602 1.68-1.183.207-.582.207-1.08.145-1.184zM5.524 16.91l-3.133.821.836-3.054-.197-.313a8.257 8.257 0 0 1-1.265-4.405c.002-4.563 3.715-8.276 8.28-8.276a8.22 8.22 0 0 1 5.852 2.427 8.227 8.227 0 0 1 2.422 5.856c-.002 4.564-3.715 8.277-8.277 8.277h-.003c-1.486 0-2.942-.4-4.213-1.154zm4.518 3.015c5.49-.003 9.956-4.47 9.958-9.959a9.898 9.898 0 0 0-2.914-7.044A9.894 9.894 0 0 0 10.042 0C4.552 0 .086 4.467.083 9.958a9.94 9.94 0 0 0 1.33 4.978L0 20.096l5.279-1.385a9.95 9.95 0 0 0 4.759 1.213z"/></g></g></svg>